<svg width="25" height="25" viewBox="0 0 25 25" fill="none" xmlns="http://www.w3.org/2000/svg">
<path d="M20.4922 4.01379H4.74219C4.04622 4.01454 3.37898 4.29134 2.88685 4.78346C2.39473 5.27558 2.11793 5.94283 2.11719 6.63879V17.8888C2.11793 18.5848 2.39473 19.252 2.88685 19.7441C3.37898 20.2362 4.04622 20.513 4.74219 20.5138H20.4922C21.1882 20.513 21.8554 20.2362 22.3475 19.7441C22.8396 19.252 23.1164 18.5848 23.1172 17.8888V6.63879C23.1164 5.94283 22.8396 5.27558 22.3475 4.78346C21.8554 4.29134 21.1882 4.01454 20.4922 4.01379V4.01379ZM19.8275 8.35583L13.0775 13.6058C12.9459 13.7081 12.7839 13.7637 12.6172 13.7637C12.4505 13.7637 12.2885 13.7081 12.1569 13.6058L5.40688 8.35583C5.32757 8.29594 5.26096 8.22088 5.21091 8.13502C5.16086 8.04917 5.12837 7.95422 5.11534 7.8557C5.1023 7.75718 5.10897 7.65705 5.13497 7.56113C5.16097 7.46521 5.20577 7.37541 5.26677 7.29696C5.32777 7.2185 5.40375 7.15295 5.4903 7.10412C5.57686 7.05528 5.67225 7.02413 5.77095 7.01249C5.86964 7.00084 5.96967 7.00892 6.06521 7.03626C6.16075 7.06361 6.24991 7.10966 6.3275 7.17176L12.6172 12.0636L18.9069 7.17176C19.0642 7.05299 19.2619 7.0009 19.4572 7.02675C19.6526 7.05261 19.83 7.15433 19.9509 7.30991C20.0719 7.4655 20.1268 7.66246 20.1037 7.85818C20.0806 8.05391 19.9814 8.23268 19.8275 8.35583Z" fill="white"/>
</svg>
